<svg width="31" height="48" viewBox="0 0 31 48" fill="none" xmlns="http://www.w3.org/2000/svg">
<path d="M0.818182 47.1807V43.0898L16.1818 26.2716C17.9848 24.3019 19.4697 22.5898 20.6364 21.1352C21.803 19.6655 22.6667 18.2867 23.2273 16.9988C23.803 15.6958 24.0909 14.3322 24.0909 12.9079C24.0909 11.2716 23.697 9.85491 22.9091 8.65794C22.1364 7.46097 21.0758 6.53672 19.7273 5.88521C18.3788 5.23369 16.8636 4.90794 15.1818 4.90794C13.3939 4.90794 11.8333 5.27915 10.5 6.02157C9.18182 6.74884 8.15909 7.77157 7.43182 9.08975C6.7197 10.4079 6.36364 11.9534 6.36364 13.7261H1C1 10.9988 1.62879 8.60491 2.88636 6.5443C4.14394 4.48369 5.85606 2.87763 8.02273 1.72612C10.2045 0.574601 12.6515 -0.00115585 15.3636 -0.00115585C18.0909 -0.00115585 20.5076 0.574601 22.6136 1.72612C24.7197 2.87763 26.3712 4.43066 27.5682 6.38521C28.7652 8.33975 29.3636 10.514 29.3636 12.9079C29.3636 14.6201 29.053 16.2943 28.4318 17.9307C27.8258 19.5519 26.7652 21.3625 25.25 23.3625C23.75 25.3473 21.6667 27.7716 19 30.6352L8.54545 41.817V42.1807H30.1818V47.1807H0.818182Z" fill="#9CA3AF"/>
</svg>
