<svg width="33" height="48" viewBox="0 0 33 48" fill="none" xmlns="http://www.w3.org/2000/svg">
<path d="M16.5455 47.817C13.5455 47.817 10.8712 47.3019 8.52273 46.2716C6.18939 45.2413 4.33333 43.8095 2.95455 41.9761C1.59091 40.1276 0.848485 37.9837 0.727273 35.5443H6.45455C6.57576 37.0443 7.09091 38.3398 8 39.4307C8.90909 40.5064 10.0985 41.3398 11.5682 41.9307C13.0379 42.5216 14.6667 42.817 16.4545 42.817C18.4545 42.817 20.2273 42.4685 21.7727 41.7716C23.3182 41.0746 24.5303 40.1049 25.4091 38.8625C26.2879 37.6201 26.7273 36.1807 26.7273 34.5443C26.7273 32.8322 26.303 31.3246 25.4545 30.0216C24.6061 28.7034 23.3636 27.6731 21.7273 26.9307C20.0909 26.1882 18.0909 25.817 15.7273 25.817H12V20.817H15.7273C17.5758 20.817 19.197 20.4837 20.5909 19.817C22 19.1504 23.0985 18.211 23.8864 16.9988C24.6894 15.7867 25.0909 14.3625 25.0909 12.7261C25.0909 11.1504 24.7424 9.77915 24.0455 8.61248C23.3485 7.44581 22.3636 6.53672 21.0909 5.88521C19.8333 5.23369 18.3485 4.90794 16.6364 4.90794C15.0303 4.90794 13.5152 5.20339 12.0909 5.7943C10.6818 6.37006 9.5303 7.21097 8.63636 8.31703C7.74242 9.40794 7.25758 10.7261 7.18182 12.2716H1.72727C1.81818 9.83218 2.55303 7.69581 3.93182 5.86248C5.31061 4.01399 7.11364 2.5746 9.34091 1.5443C11.5833 0.513996 14.0455 -0.00115585 16.7273 -0.00115585C19.6061 -0.00115585 22.0758 0.582177 24.1364 1.74884C26.197 2.90036 27.7803 4.42309 28.8864 6.31703C29.9924 8.21097 30.5455 10.2564 30.5455 12.4534C30.5455 15.0746 29.8561 17.3095 28.4773 19.1579C27.1136 21.0064 25.2576 22.2867 22.9091 22.9988V23.3625C25.8485 23.8473 28.1439 25.0973 29.7955 27.1125C31.447 29.1125 32.2727 31.5898 32.2727 34.5443C32.2727 37.0746 31.5833 39.3473 30.2045 41.3625C28.8409 43.3625 26.9773 44.9382 24.6136 46.0898C22.25 47.2413 19.5606 47.817 16.5455 47.817Z" fill="#9CA3AF"/>
</svg>
