<svg width="66" height="66" viewBox="0 0 66 66" fill="none" xmlns="http://www.w3.org/2000/svg">
<path d="M65.7524 54.146L53.7042 31.8183C54.9333 29.0227 55.6209 25.9331 55.6209 22.6825C55.6209 10.1549 45.4863 0 32.986 0C20.4827 0 10.3491 10.156 10.3491 22.6825C10.3491 26.0115 11.0707 29.1702 12.3554 32.0174L0.253532 54.1356C-0.136683 54.8464 -0.0718296 55.7233 0.416116 56.3721C0.905091 57.019 1.73069 57.3233 2.51916 57.1376L12.8535 54.7619L16.3906 64.6342C16.6665 65.4017 17.3655 65.934 18.1756 65.9938C18.2282 65.9979 18.2786 66 18.328 66C18.7003 65.9999 19.0655 65.8986 19.3849 65.707C19.7043 65.5153 19.9659 65.2405 20.1418 64.9117L30.6738 45.2486C31.4417 45.3266 32.213 45.3655 32.9849 45.3652C33.7003 45.3652 34.4064 45.3281 35.1044 45.2621L45.8649 64.9272C46.0553 65.2758 46.3422 65.5619 46.691 65.7509C47.0399 65.9399 47.4358 66.0239 47.8311 65.9928C48.6392 65.9278 49.3351 65.3965 49.6089 64.6331L53.146 54.7609L63.4803 57.1366C64.273 57.3284 65.0903 57.02 65.5793 56.3752C66.0703 55.7315 66.1362 54.8588 65.7522 54.146H65.7524ZM18.7026 58.8768L16.1124 51.6453C15.7583 50.6622 14.731 50.0897 13.7139 50.3321L6.0704 52.0889L14.7825 36.1653C17.6515 40.0493 21.728 42.979 26.4562 44.4047L18.7026 58.8768ZM14.485 22.6825C14.485 12.4605 22.7852 4.14382 32.9867 4.14382C43.1873 4.14382 51.4865 12.4605 51.4865 22.6825C51.4865 32.9045 43.1873 41.2232 32.9867 41.2232C22.7841 41.2232 14.485 32.9045 14.485 22.6825ZM52.2853 50.3321C51.2641 50.0907 50.2409 50.6622 49.8867 51.6452L47.2791 58.9292L39.3557 44.4509C44.2094 43.0263 48.3848 40.0193 51.2909 36.0219L59.9668 52.0971L52.2853 50.3321Z" fill="#F3F4F6"/>
</svg>
