<svg width="120" height="133" viewBox="0 0 120 133" fill="none" xmlns="http://www.w3.org/2000/svg">
<path d="M85.3333 3V28.3333M34.6667 3V28.3333M117 72.6667V66.3333C117 42.4503 117 30.5057 109.577 23.0893C102.155 15.673 90.2163 15.6667 66.3333 15.6667H53.6667C29.7837 15.6667 17.839 15.6667 10.4227 23.0893C3.00633 30.512 3 42.4503 3 66.3333V79C3 102.883 3 114.828 10.4227 122.244C17.8453 129.66 29.7837 129.667 53.6667 129.667M3 53.6667H117" stroke="#1F2937" stroke-width="5" stroke-linecap="round" stroke-linejoin="round"/>
<path d="M66.334 113.834C66.334 113.834 74.8713 117.045 79.0007 129.667C79.0007 129.667 99.1217 98.0003 117.001 91.667" stroke="#1F2937" stroke-width="5" stroke-linecap="round" stroke-linejoin="round"/>
</svg>
