<svg width="34" height="34" viewBox="0 0 34 34" fill="none" xmlns="http://www.w3.org/2000/svg">
<path d="M2.68457 0.5H8.94727C9.52655 0.5 10.0826 0.730029 10.4922 1.13965C10.9017 1.54926 11.1318 2.10534 11.1318 2.68457C11.1319 4.6954 11.4216 6.67634 12.0029 8.56641L12.123 8.94336C12.3689 9.71274 12.1902 10.4943 11.6797 11.0527L11.5732 11.1621L8.74121 13.9941L8.91992 14.3223C11.3952 18.8583 15.1232 22.5872 19.6592 25.0625L19.9883 25.2412L20.2529 24.9766L22.8281 22.4004C23.113 22.1167 23.4707 21.9164 23.8613 21.8213C24.2032 21.7381 24.5598 21.7379 24.9004 21.8203L25.0449 21.8613C27.0644 22.5395 29.1733 22.8681 31.3154 22.8682C31.8947 22.8682 32.4507 23.0983 32.8604 23.5078C33.27 23.9174 33.5 24.4734 33.5 25.0527V31.3154C33.5 31.8947 33.27 32.4507 32.8604 32.8604C32.4507 33.27 31.8947 33.5 31.3154 33.5C14.3234 33.4998 0.500195 19.6766 0.5 2.68457C0.5 2.10528 0.730029 1.54927 1.13965 1.13965C1.54927 0.730029 2.10528 0.5 2.68457 0.5ZM2.68457 1.28906C2.31466 1.28906 1.95981 1.43668 1.69824 1.69824C1.43668 1.95981 1.28906 2.31466 1.28906 2.68457C1.28926 19.2446 14.7554 32.7107 31.3154 32.7109C31.6853 32.7109 32.0402 32.5633 32.3018 32.3018C32.5633 32.0402 32.7109 31.6853 32.7109 31.3154V25.0527C32.7109 24.6828 32.5633 24.328 32.3018 24.0664C32.0402 23.8049 31.6853 23.6582 31.3154 23.6582C29.0777 23.6582 26.8941 23.3088 24.7988 22.6104L24.7871 22.6055L24.7744 22.6025L24.5928 22.5635C24.1634 22.4995 23.7147 22.6233 23.375 22.9629L23.373 22.9648L20.1436 26.2266C14.7085 23.3494 10.6149 19.255 7.77148 13.8379L11.0361 10.5898L11.0371 10.5889C11.4247 10.2009 11.4984 9.71652 11.4141 9.33105L11.3691 9.17285C10.6906 7.09793 10.3418 4.9181 10.3418 2.68457C10.3418 2.31472 10.1951 1.95979 9.93359 1.69824C9.67203 1.43668 9.31717 1.28906 8.94727 1.28906H2.68457Z" fill="#1F2937" stroke="#9CA3AF"/>
</svg>
