<svg width="75" height="66" viewBox="0 0 75 66" fill="none" xmlns="http://www.w3.org/2000/svg">
<path fill-rule="evenodd" clip-rule="evenodd" d="M36.1456 0.188783C36.9933 -0.0629278 37.8898 -0.0629278 38.7375 0.188783C40.5445 0.717377 42.3655 1.20642 44.1935 1.69905C52.7786 4.004 61.4962 6.34852 69.2545 12.8606L72.8267 15.8596C74.2744 17.075 75 18.8801 75 20.6781V45.8492C75 46.5644 74.7243 47.2504 74.2337 47.7562C73.743 48.262 73.0776 48.5461 72.3837 48.5461C71.6898 48.5461 71.0243 48.262 70.5336 47.7562C70.043 47.2504 69.7673 46.5644 69.7673 45.8492V28.0748L69.1987 28.553C66.6286 30.7009 63.8206 32.5272 60.8334 33.9936C60.9729 34.322 61.0439 34.678 61.0462 35.0616V50.5022C61.0461 52.4932 60.463 54.4378 59.3731 56.0815C58.2833 57.7253 56.7374 58.9916 54.9379 59.7149L40.9841 65.3244C38.743 66.2252 36.2553 66.2252 34.0142 65.3244L20.0603 59.7149C18.2608 58.9916 16.715 57.7253 15.6251 56.0815C14.5353 54.4378 13.9522 52.4932 13.9521 50.5022V35.0616C13.9544 34.6708 14.0288 34.3064 14.1753 33.9684C11.2799 32.5337 8.45427 30.7681 5.74374 28.4955L2.17156 25.4965C-0.723854 23.0621 -0.723854 18.294 2.17156 15.8596L5.79955 12.8031C13.4986 6.33054 22.1569 3.99681 30.6792 1.70265C32.5066 1.21863 34.3289 0.713982 36.1456 0.188783ZM69.7673 20.6817C69.7673 20.358 69.6417 20.1423 69.5231 20.0416L65.951 17.0426C58.4298 11.6884 51.725 9.3259 43.2202 7.02094C41.2897 6.50507 39.364 5.97046 37.4433 5.41718C35.4549 5.99612 33.5223 6.52112 31.6455 7.03173C23.2034 9.31871 15.8463 11.3144 9.1101 16.9851L5.47862 20.038C5.35652 20.1387 5.23094 20.3508 5.23094 20.6745C5.23094 20.9981 5.35652 21.2139 5.47513 21.3145L9.05079 24.3135C15.8463 30.0201 23.2697 32.0302 31.7781 34.3352C33.6502 34.8338 35.5758 35.3684 37.5549 35.939C39.5434 35.36 41.476 34.835 43.3528 34.3244C51.7948 32.0374 59.152 30.0417 65.8882 24.3746L69.5196 21.3181C69.6417 21.2175 69.7673 21.0053 69.7673 20.6817ZM44.3225 39.6535C48.1598 38.6215 52.0216 37.5787 55.8135 36.1583V50.5022C55.8135 52.3541 54.7112 54.0154 53.0367 54.6914L39.0829 60.2974C38.0644 60.7067 36.9339 60.7067 35.9154 60.2974L21.9616 54.6878C21.1438 54.3593 20.4413 53.784 19.9459 53.0372C19.4505 52.2904 19.1852 51.4069 19.1847 50.5022V36.1259C23.0186 37.5643 26.9256 38.6143 30.8013 39.6571C32.6327 40.1497 34.4537 40.6388 36.2607 41.1674C37.1084 41.4191 38.005 41.4191 38.8526 41.1674C40.6632 40.6352 42.4876 40.1461 44.3225 39.6535Z" fill="#111827"/>
</svg>
