<svg width="38" height="27" viewBox="0 0 38 27" fill="none" xmlns="http://www.w3.org/2000/svg">
<path d="M10 8.2002L19 14.5002L28 8.2002" stroke="#9CA3AF" stroke-width="1.5" stroke-linecap="round" stroke-linejoin="round"/>
<path d="M1 22.6V4.6C1 3.64522 1.37928 2.72955 2.05442 2.05442C2.72955 1.37928 3.64522 1 4.6 1H33.4C34.3548 1 35.2705 1.37928 35.9456 2.05442C36.6207 2.72955 37 3.64522 37 4.6V22.6C37 23.5548 36.6207 24.4705 35.9456 25.1456C35.2705 25.8207 34.3548 26.2 33.4 26.2H4.6C3.64522 26.2 2.72955 25.8207 2.05442 25.1456C1.37928 24.4705 1 23.5548 1 22.6Z" stroke="#9CA3AF" stroke-width="1.5"/>
</svg>
