<svg width="68" height="79" viewBox="0 0 68 79" fill="none" xmlns="http://www.w3.org/2000/svg">
<path d="M46.2578 33.0657C42.8433 29.6557 38.2149 27.7404 33.3892 27.7404C28.5635 27.7404 23.9351 29.6557 20.5205 33.0657L7.64765 45.9344C4.23411 49.3479 2.31641 53.9777 2.31641 58.8052C2.31641 63.6326 4.23411 68.2624 7.64765 71.6759C11.0612 75.0895 15.6909 77.0072 20.5184 77.0072C25.3459 77.0072 29.9756 75.0895 33.3892 71.6759L39.8235 65.2416" stroke="#111827" stroke-width="3" stroke-linecap="round" stroke-linejoin="round"/>
<path d="M22.0586 45.9342C25.4732 49.3443 30.1016 51.2596 34.9273 51.2596C39.753 51.2596 44.3814 49.3443 47.7959 45.9342L60.6688 33.0656C64.0823 29.652 66 25.0223 66 20.1948C66 15.3673 64.0823 10.7376 60.6688 7.32404C57.2553 3.9105 52.6255 1.9928 47.798 1.9928C42.9706 1.9928 38.3408 3.9105 34.9273 7.32404L28.4929 13.7584" stroke="#111827" stroke-width="3" stroke-linecap="round" stroke-linejoin="round"/>
</svg>
