<svg width="85" height="68" viewBox="0 0 85 68" fill="none" xmlns="http://www.w3.org/2000/svg">
<path d="M21.5 50.2004C20.121 50.2004 18.7984 50.7478 17.8232 51.7229C16.8481 52.698 16.2999 54.0206 16.2998 55.3997C16.2998 56.7788 16.8481 58.1022 17.8232 59.0774C18.7984 60.0524 20.121 60.5999 21.5 60.5999C22.879 60.5998 24.2016 60.0524 25.1768 59.0774C26.1519 58.1022 26.7002 56.7788 26.7002 55.3997C26.7001 54.0206 26.1519 52.698 25.1768 51.7229C24.2016 50.7478 22.879 50.2004 21.5 50.2004ZM63.5 50.2004C62.121 50.2004 60.7984 50.7478 59.8232 51.7229C58.8481 52.698 58.2999 54.0206 58.2998 55.3997C58.2998 56.7788 58.8481 58.1022 59.8232 59.0774C60.7984 60.0523 62.1211 60.5999 63.5 60.5999C64.879 60.5998 66.2016 60.0524 67.1768 59.0774C68.1519 58.1022 68.7002 56.7788 68.7002 55.3997C68.7001 54.0207 68.1519 52.698 67.1768 51.7229C66.2016 50.7478 64.879 50.2005 63.5 50.2004ZM7.90039 48.0002H12.5566L12.8545 47.6663C13.9002 46.4945 15.1737 45.5468 16.5967 44.8821C18.0195 44.2175 19.5632 43.849 21.1328 43.7991C22.7023 43.7492 24.2655 44.0192 25.7275 44.592C27.1849 45.1631 28.5113 46.0237 29.627 47.1213L30.166 47.6887L30.4619 48.0002H54.5381L54.834 47.6887L55.2979 47.1985L55.7891 46.7336L56.0996 46.4377V8.20044H7.90039V48.0002ZM9.90039 54.3997H8.90039C6.93779 54.3997 5.05476 53.6204 3.66699 52.2327C2.27938 50.845 1.50007 48.9627 1.5 47.0002V9.20044C1.5 7.23784 2.27923 5.35481 3.66699 3.96704C5.05476 2.57927 6.93779 1.80005 8.90039 1.80005H55.0996C57.062 1.80005 58.9443 2.57955 60.332 3.96704C61.7198 5.35481 62.5 7.23784 62.5 9.20044V14.3997H69.8838C70.9929 14.3998 72.0882 14.6498 73.0879 15.1301C74.0872 15.6103 74.9661 16.3087 75.6592 17.1741L81.875 24.9485L81.876 24.9495C82.927 26.2618 83.4997 27.8931 83.5 29.5745V47.0002C83.4999 48.9627 82.7197 50.845 81.332 52.2327C79.9443 53.6203 78.0621 54.3997 76.0996 54.3997H75.0996V55.3997C75.0996 58.4762 73.8776 61.4274 71.7021 63.6028C69.5268 65.778 66.5763 67.0002 63.5 67.0002C60.4237 67.0002 57.4732 65.778 55.2979 63.6028C53.1224 61.4274 51.9004 58.4762 51.9004 55.3997V54.3997H33.0996V55.3997C33.0996 56.923 32.7998 58.4317 32.2168 59.8391C31.6338 61.2465 30.7793 62.5256 29.7021 63.6028C28.6251 64.6798 27.3466 65.5345 25.9395 66.1174C24.5321 66.7004 23.0233 67.0002 21.5 67.0002C19.9767 67.0002 18.4679 66.7004 17.0605 66.1174C15.6534 65.5345 14.3749 64.6798 13.2979 63.6028C12.2207 62.5256 11.3662 61.2464 10.7832 59.8391C10.2002 58.4317 9.90039 56.923 9.90039 55.3997V54.3997ZM77.0996 29.219L76.8809 28.9456L70.665 21.175L70.3643 20.8H62.5V43.8H63.5C66.6642 43.8001 69.5319 45.0697 71.6289 47.1223L72.166 47.6887L72.4619 48.0002H77.0996V29.219Z" fill="#111827" stroke="white" stroke-width="2"/>
</svg>
