<svg width="88" height="85" viewBox="0 0 88 85" fill="none" xmlns="http://www.w3.org/2000/svg">
<path d="M56.5489 81.157L39.0532 63.761L42.5346 60.2994L56.5489 74.2338L84.5235 46.4236L88 49.8804L56.5489 81.157ZM78.6768 36.1073H73.7595V14.6727C73.7595 13.9198 73.4448 13.2287 72.8154 12.5997C72.186 11.9706 71.491 11.6577 70.7304 11.6609H59.0076V22.564H19.6692V11.6609H7.94636C7.18909 11.6609 6.49411 11.9738 5.86142 12.5997C5.22873 13.2255 4.91402 13.9165 4.9173 14.6727V77.1038C4.9173 77.8535 5.23201 78.5429 5.86142 79.172C6.49084 79.8011 7.18417 80.114 7.94144 80.1107H34.4211V85H7.94636C5.74341 85 3.86828 84.2308 2.32097 82.6923C0.773656 81.1538 0 79.291 0 77.1038V14.6678C0 12.4839 0.773656 10.6211 2.32097 9.07938C3.86828 7.54089 5.74341 6.77164 7.94636 6.77164H30.743C31.2019 4.86157 32.2231 3.25626 33.8064 1.95571C35.3898 0.651903 37.2338 0 39.3384 0C41.4823 0 43.3411 0.651903 44.9146 1.95571C46.4882 3.253 47.5044 4.85831 47.9633 6.77164H70.7304C72.9334 6.77164 74.8085 7.54089 76.3558 9.07938C77.9031 10.6179 78.6768 12.4823 78.6768 14.6727V36.1073ZM39.3384 12.7854C40.4792 12.7854 41.4266 12.4122 42.1806 11.6658C42.9346 10.9161 43.3116 9.97411 43.3116 8.8398C43.3116 7.70549 42.9346 6.76349 42.1806 6.0138C41.4266 5.26412 40.4792 4.88927 39.3384 4.88927C38.1976 4.88927 37.2502 5.26412 36.4962 6.0138C35.7422 6.76349 35.3652 7.70549 35.3652 8.8398C35.3652 9.97411 35.7422 10.9161 36.4962 11.6658C37.2502 12.4155 38.1976 12.7854 39.3384 12.7854Z" fill="#111827"/>
</svg>
