<svg width="92" height="83" viewBox="0 0 92 83" fill="none" xmlns="http://www.w3.org/2000/svg">
<path d="M84.2585 28.9321C87.7957 35.0172 89.5556 38.0598 89.5556 41.4C89.5556 44.7402 87.7913 47.7828 84.2585 53.8679L75.84 68.3846C72.3246 74.4435 70.5648 77.4729 67.6754 79.1365C64.7861 80.8 61.2751 80.8 54.2575 80.8H37.298C30.2804 80.8 26.7695 80.8 23.8801 79.1365C20.9908 77.4729 19.2309 74.4435 15.7156 68.3846L7.29711 53.8679C3.76424 47.7828 2 44.7402 2 41.4C2 38.0598 3.76424 35.0172 7.29711 28.9321L15.7156 14.4154C19.2309 8.35653 20.9908 5.32711 23.8801 3.66356C26.7695 2 30.2804 2 37.298 2H54.2575C61.2751 2 64.7861 2 67.6754 3.66356C70.5648 5.32711 72.3246 8.35653 75.84 14.4154L84.2585 28.9321Z" stroke="#111827" stroke-width="3"/>
<path d="M32.6406 23.8888L58.9073 58.911" stroke="#111827" stroke-width="3" stroke-linecap="round"/>
</svg>
