<svg width="20" height="20" viewBox="0 0 20 20" fill="none" xmlns="http://www.w3.org/2000/svg">
<path d="M9.71429 6.91429C10.7623 5.84343 12.1269 5.14286 13.7143 5.14286C15.3814 5.14286 16.9802 5.8051 18.159 6.9839C19.3378 8.1627 20 9.7615 20 11.4286V20H17.7143V11.4286C17.7143 10.3677 17.2929 9.35029 16.5427 8.60015C15.7926 7.85 14.7752 7.42857 13.7143 7.42857C12.6534 7.42857 11.636 7.85 10.8859 8.60015C10.1357 9.35029 9.71429 10.3677 9.71429 11.4286V20H7.42857V5.71429H9.71429V6.91429ZM1.71429 3.42857C1.25963 3.42857 0.823594 3.24796 0.502103 2.92647C0.180612 2.60498 0 2.16894 0 1.71429C0 1.25963 0.180612 0.823594 0.502103 0.502103C0.823594 0.180612 1.25963 0 1.71429 0C2.16894 0 2.60498 0.180612 2.92647 0.502103C3.24796 0.823594 3.42857 1.25963 3.42857 1.71429C3.42857 2.16894 3.24796 2.60498 2.92647 2.92647C2.60498 3.24796 2.16894 3.42857 1.71429 3.42857ZM0.571429 5.71429H2.85714V20H0.571429V5.71429Z" fill="#1F2937"/>
</svg>
