<svg width="29" height="35" viewBox="0 0 29 35" fill="none" xmlns="http://www.w3.org/2000/svg">
<path d="M15.5076 33.076C15.2138 33.287 14.8613 33.4005 14.4996 33.4005C14.1379 33.4005 13.7854 33.287 13.4916 33.076C4.7994 26.8804 -4.4256 14.1364 4.9002 4.9276C7.46042 2.40913 10.9083 0.998423 14.4996 1C18.0996 1 21.5538 2.413 24.099 4.9258C33.4248 14.1346 24.1998 26.8768 15.5076 33.076Z" stroke="#1F2937" stroke-width="1.5" stroke-linecap="round" stroke-linejoin="round"/>
<path d="M14.5004 17.2C15.4552 17.2 16.3708 16.8207 17.046 16.1456C17.7211 15.4705 18.1004 14.5548 18.1004 13.6C18.1004 12.6452 17.7211 11.7295 17.046 11.0544C16.3708 10.3793 15.4552 10 14.5004 10C13.5456 10 12.6299 10.3793 11.9548 11.0544C11.2797 11.7295 10.9004 12.6452 10.9004 13.6C10.9004 14.5548 11.2797 15.4705 11.9548 16.1456C12.6299 16.8207 13.5456 17.2 14.5004 17.2Z" stroke="#1F2937" stroke-width="1.5" stroke-linecap="round" stroke-linejoin="round"/>
</svg>
