<svg width="34" height="34" viewBox="0 0 34 34" fill="none" xmlns="http://www.w3.org/2000/svg">
<path d="M31.3158 34C32.0277 34 32.7104 33.7172 33.2138 33.2138C33.7172 32.7104 34 32.0277 34 31.3158V25.0526C34 24.3407 33.7172 23.658 33.2138 23.1546C32.7104 22.6512 32.0277 22.3684 31.3158 22.3684C29.2221 22.3684 27.1642 22.0463 25.1958 21.3842C24.7252 21.2357 24.2229 21.2188 23.7434 21.3356C23.2639 21.4523 22.8255 21.6981 22.4758 22.0463L19.8989 24.6232C15.4472 22.1938 11.7883 18.5349 9.35895 14.0832L11.9179 11.5242C12.6516 10.8263 12.92 9.78842 12.5979 8.78631C11.9537 6.83579 11.6316 4.77789 11.6316 2.68421C11.6316 1.97231 11.3488 1.28957 10.8454 0.786187C10.342 0.2828 9.65927 0 8.94737 0H2.68421C1.97231 0 1.28957 0.2828 0.786187 0.786187C0.2828 1.28957 0 1.97231 0 2.68421C0 19.9526 14.0474 34 31.3158 34ZM2.68421 1.78947H8.94737C9.18467 1.78947 9.41225 1.88374 9.58004 2.05154C9.74784 2.21933 9.8421 2.44691 9.8421 2.68421C9.8421 4.97474 10.2 7.21158 10.8979 9.34105C10.9874 9.59158 10.9695 9.94947 10.6832 10.2358L7.15789 13.7432C10.1105 19.5232 14.4411 23.8537 20.2389 26.8421L23.7284 23.3168C23.9789 23.0663 24.3189 22.9947 24.6411 23.0842C26.7884 23.8 29.0253 24.1579 31.3158 24.1579C31.5531 24.1579 31.7807 24.2522 31.9485 24.42C32.1163 24.5878 32.2105 24.8153 32.2105 25.0526V31.3158C32.2105 31.5531 32.1163 31.7807 31.9485 31.9485C31.7807 32.1163 31.5531 32.2105 31.3158 32.2105C15.0316 32.2105 1.78947 18.9684 1.78947 2.68421C1.78947 2.44691 1.88374 2.21933 2.05154 2.05154C2.21933 1.88374 2.44691 1.78947 2.68421 1.78947Z" fill="#1F2937"/>
</svg>
