<svg width="40" height="38" viewBox="0 0 40 38" fill="none" xmlns="http://www.w3.org/2000/svg">
<path d="M39.3694 18.2747L34.8233 14.1921L36.1805 13.0855C36.788 12.5875 37.3022 11.9861 37.6995 11.3091C39.2007 8.71384 38.7639 5.52762 36.6122 3.38069C34.4606 1.23376 31.2675 0.797854 28.6668 2.29592C27.9885 2.69232 27.3858 3.20546 26.8867 3.81156L25.7776 5.16584L21.6861 0.629632L21.6383 0.579199C21.2656 0.208294 20.7608 0 20.2344 0C19.7081 0 19.2033 0.208294 18.8306 0.579199L13.4042 5.9944L13.5026 7.95066L16.2413 10.1839C16.6071 10.4821 16.9173 10.8422 17.1578 11.2478C18.0517 12.7932 17.784 14.6981 16.4914 15.9879C15.1988 17.2777 13.2901 17.5448 11.7411 16.653C11.3343 16.4128 10.9731 16.1031 10.674 15.738L8.43665 13.0058L6.47617 12.9077L0.581515 18.7896C0.397152 18.9736 0.250908 19.192 0.151131 19.4323C0.0513545 19.6727 0 19.9303 0 20.1905C0 20.4506 0.0513545 20.7082 0.151131 20.9486C0.250908 21.189 0.397152 21.4073 0.581515 21.5913L15.0871 36.0659C15.7016 36.6791 16.4312 37.1655 17.2341 37.4973C18.0369 37.8292 18.8975 38 19.7665 38C20.6356 38 21.4961 37.8292 22.299 37.4973C23.1019 37.1655 23.8314 36.6791 24.446 36.0659L39.4196 21.1241C39.7913 20.7523 40 20.2485 40 19.7234C40 19.1982 39.7913 18.6944 39.4196 18.3226L39.3694 18.2747ZM22.5742 34.1982C22.2055 34.5661 21.7677 34.858 21.286 35.0571C20.8043 35.2562 20.2879 35.3587 19.7665 35.3587C19.2451 35.3587 18.7287 35.2562 18.247 35.0571C17.7653 34.858 17.3275 34.5661 16.9588 34.1982L2.92077 20.1902L7.31322 15.8076L8.6293 17.415L8.63758 17.4248C9.13666 18.0309 9.73938 18.5441 10.4178 18.9405C13.0186 20.4386 16.2116 20.0026 18.3633 17.8556C20.5149 15.7086 20.9517 12.5225 19.4505 9.92738C19.0532 9.25042 18.5389 8.649 17.9315 8.15099L16.3109 6.82948L20.209 2.93975L24.8428 8.07728L26.8515 8.02949L28.9246 5.49791C29.2234 5.13299 29.5843 4.82346 29.9907 4.5835C31.5394 3.69146 33.4484 3.95874 34.741 5.24846C36.0336 6.53819 36.3014 8.44286 35.4075 9.98855C35.167 10.3941 34.8568 10.7543 34.491 11.0524L31.954 13.121L31.906 15.1253L37.0548 19.7492L22.5742 34.1982Z" fill="#1F2937"/>
</svg>
