<svg width="40" height="43" viewBox="0 0 40 43" fill="none" xmlns="http://www.w3.org/2000/svg">
<mask id="path-1-inside-1_4025_195" fill="white">
<path fill-rule="evenodd" clip-rule="evenodd" d="M17.7483 4.29943H22.2438C22.3927 4.29943 22.5356 4.35982 22.6409 4.46733C22.7462 4.57484 22.8054 4.72065 22.8054 4.87268C22.8054 10.0549 28.3032 13.2967 32.7004 10.7027C32.8287 10.6286 32.9805 10.6091 33.1229 10.6482C33.2652 10.6873 33.3868 10.7821 33.4613 10.9119L35.7133 14.8903C35.7867 15.0216 35.8064 15.1772 35.768 15.3232C35.7296 15.4693 35.6363 15.5939 35.5083 15.67C31.1111 18.2611 31.1111 24.7389 35.5083 27.3329C35.6355 27.409 35.7283 27.5331 35.7667 27.6784C35.805 27.8237 35.7858 27.9786 35.7133 28.1097L33.4613 32.0881C33.3868 32.2179 33.2652 32.3127 33.1229 32.3518C32.9805 32.391 32.8287 32.3714 32.7004 32.2973C28.3032 29.7033 22.8054 32.9422 22.8054 38.1216C22.8054 38.2731 22.7466 38.4185 22.6419 38.5259C22.5372 38.6334 22.395 38.6941 22.2466 38.6948H17.7511C17.6022 38.6948 17.4594 38.6344 17.354 38.5269C17.2487 38.4194 17.1896 38.2736 17.1896 38.1216C17.1896 32.9393 11.6917 29.7004 7.29451 32.2916C7.1659 32.3665 7.01348 32.3866 6.87044 32.3474C6.7274 32.3082 6.60531 32.213 6.53076 32.0823L4.28444 28.1039C4.21163 27.9732 4.19203 27.8186 4.22984 27.6733C4.26766 27.528 4.35987 27.4037 4.48661 27.3272C8.88378 24.7332 8.88378 18.2554 4.48661 15.6614C4.36014 15.5853 4.26787 15.4617 4.22956 15.3171C4.19125 15.1724 4.20994 15.0182 4.28163 14.8875L6.53076 10.9062C6.60578 10.7761 6.72807 10.6814 6.87107 10.6427C7.01408 10.6041 7.16624 10.6246 7.29451 10.6998C11.6917 13.2938 17.1896 10.0521 17.1896 4.86982C17.1896 4.55453 17.4395 4.29943 17.7483 4.29943ZM12.9777 4.87268C12.9777 2.17838 15.1117 0 17.7483 0H22.2438C24.8832 0 27.0172 2.17838 27.0172 4.87268C27.018 5.29966 27.1288 5.71891 27.3383 6.08843C27.5479 6.45796 27.8489 6.76477 28.2112 6.97814C28.5735 7.19151 28.9844 7.30394 29.4027 7.30416C29.821 7.30438 30.2319 7.19239 30.5945 6.9794C31.6902 6.33523 32.9916 6.16116 34.2129 6.49541C35.4342 6.82966 36.4757 7.64491 37.1088 8.76223L39.3607 12.7406C40.6776 15.0709 39.8942 18.0461 37.6142 19.3904C37.2516 19.6043 36.9504 19.9118 36.741 20.2821C36.5317 20.6524 36.4215 21.0725 36.4215 21.5C36.4215 21.9276 36.5317 22.3476 36.741 22.7179C36.9504 23.0882 37.2516 23.3957 37.6142 23.6096C38.7088 24.2558 39.5074 25.319 39.8349 26.5657C40.1623 27.8124 39.9918 29.1409 39.3607 30.2594L37.1088 34.2378C36.4757 35.3551 35.4342 36.1703 34.2129 36.5046C32.9916 36.8388 31.6902 36.6648 30.5945 36.0206C30.2319 35.8076 29.821 35.6956 29.4027 35.6958C28.9844 35.6961 28.5735 35.8085 28.2112 36.0219C27.8489 36.2352 27.5479 36.542 27.3383 36.9116C27.1288 37.2811 27.018 37.7003 27.0172 38.1273C27.0172 40.8188 24.8832 43 22.2466 43H17.7511C16.4856 42.9992 15.2722 42.4855 14.3776 41.5718C13.483 40.6581 12.9805 39.4191 12.9805 38.1273C12.9797 37.7003 12.8689 37.2811 12.6594 36.9116C12.4498 36.542 12.1488 36.2352 11.7865 36.0219C11.4242 35.8085 11.0133 35.6961 10.595 35.6958C10.1768 35.6956 9.76577 35.8076 9.40324 36.0206C8.30751 36.6648 7.00616 36.8388 5.78484 36.5046C4.56351 36.1703 3.522 35.3551 2.88891 34.2378L0.636977 30.2594C0.00592035 29.1409 -0.164601 27.8124 0.162841 26.5657C0.490282 25.319 1.28893 24.2558 2.38349 23.6096C2.7455 23.3955 3.04603 23.0881 3.25494 22.7181C3.46386 22.3481 3.57383 21.9285 3.57383 21.5014C3.57383 21.0744 3.46386 20.6548 3.25494 20.2848C3.04603 19.9148 2.7455 19.6074 2.38349 19.3933C1.28893 18.747 0.490282 17.6839 0.162841 16.4371C-0.164601 15.1904 0.00592035 13.862 0.636977 12.7435L2.88611 8.76223C3.51919 7.64491 4.5607 6.82966 5.78203 6.49541C7.00336 6.16116 8.3047 6.33523 9.40043 6.9794C9.76296 7.19239 10.1739 7.30438 10.5922 7.30416C11.0105 7.30394 11.4214 7.19151 11.7837 6.97814C12.146 6.76477 12.447 6.45796 12.6566 6.08843C12.8661 5.71891 12.9769 5.29966 12.9777 4.87268ZM24.2093 21.4971C24.2093 22.6374 23.7656 23.731 22.9757 24.5373C22.1858 25.3436 21.1145 25.7966 19.9975 25.7966C18.8804 25.7966 17.8091 25.3436 17.0192 24.5373C16.2293 23.731 15.7856 22.6374 15.7856 21.4971C15.7856 20.3569 16.2293 19.2633 17.0192 18.457C17.8091 17.6507 18.8804 17.1977 19.9975 17.1977C21.1145 17.1977 22.1858 17.6507 22.9757 18.457C23.7656 19.2633 24.2093 20.3569 24.2093 21.4971ZM28.4212 21.4971C28.4212 23.7777 27.5337 25.9648 25.9539 27.5774C24.3742 29.19 22.2316 30.096 19.9975 30.096C17.7633 30.096 15.6207 29.19 14.041 27.5774C12.4612 25.9648 11.5737 23.7777 11.5737 21.4971C11.5737 19.2166 12.4612 17.0294 14.041 15.4168C15.6207 13.8042 17.7633 12.8983 19.9975 12.8983C22.2316 12.8983 24.3742 13.8042 25.9539 15.4168C27.5337 17.0294 28.4212 19.2166 28.4212 21.4971Z"/>
</mask>
<path fill-rule="evenodd" clip-rule="evenodd" d="M17.7483 4.29943H22.2438C22.3927 4.29943 22.5356 4.35982 22.6409 4.46733C22.7462 4.57484 22.8054 4.72065 22.8054 4.87268C22.8054 10.0549 28.3032 13.2967 32.7004 10.7027C32.8287 10.6286 32.9805 10.6091 33.1229 10.6482C33.2652 10.6873 33.3868 10.7821 33.4613 10.9119L35.7133 14.8903C35.7867 15.0216 35.8064 15.1772 35.768 15.3232C35.7296 15.4693 35.6363 15.5939 35.5083 15.67C31.1111 18.2611 31.1111 24.7389 35.5083 27.3329C35.6355 27.409 35.7283 27.5331 35.7667 27.6784C35.805 27.8237 35.7858 27.9786 35.7133 28.1097L33.4613 32.0881C33.3868 32.2179 33.2652 32.3127 33.1229 32.3518C32.9805 32.391 32.8287 32.3714 32.7004 32.2973C28.3032 29.7033 22.8054 32.9422 22.8054 38.1216C22.8054 38.2731 22.7466 38.4185 22.6419 38.5259C22.5372 38.6334 22.395 38.6941 22.2466 38.6948H17.7511C17.6022 38.6948 17.4594 38.6344 17.354 38.5269C17.2487 38.4194 17.1896 38.2736 17.1896 38.1216C17.1896 32.9393 11.6917 29.7004 7.29451 32.2916C7.1659 32.3665 7.01348 32.3866 6.87044 32.3474C6.7274 32.3082 6.60531 32.213 6.53076 32.0823L4.28444 28.1039C4.21163 27.9732 4.19203 27.8186 4.22984 27.6733C4.26766 27.528 4.35987 27.4037 4.48661 27.3272C8.88378 24.7332 8.88378 18.2554 4.48661 15.6614C4.36014 15.5853 4.26787 15.4617 4.22956 15.3171C4.19125 15.1724 4.20994 15.0182 4.28163 14.8875L6.53076 10.9062C6.60578 10.7761 6.72807 10.6814 6.87107 10.6427C7.01408 10.6041 7.16624 10.6246 7.29451 10.6998C11.6917 13.2938 17.1896 10.0521 17.1896 4.86982C17.1896 4.55453 17.4395 4.29943 17.7483 4.29943ZM12.9777 4.87268C12.9777 2.17838 15.1117 0 17.7483 0H22.2438C24.8832 0 27.0172 2.17838 27.0172 4.87268C27.018 5.29966 27.1288 5.71891 27.3383 6.08843C27.5479 6.45796 27.8489 6.76477 28.2112 6.97814C28.5735 7.19151 28.9844 7.30394 29.4027 7.30416C29.821 7.30438 30.2319 7.19239 30.5945 6.9794C31.6902 6.33523 32.9916 6.16116 34.2129 6.49541C35.4342 6.82966 36.4757 7.64491 37.1088 8.76223L39.3607 12.7406C40.6776 15.0709 39.8942 18.0461 37.6142 19.3904C37.2516 19.6043 36.9504 19.9118 36.741 20.2821C36.5317 20.6524 36.4215 21.0725 36.4215 21.5C36.4215 21.9276 36.5317 22.3476 36.741 22.7179C36.9504 23.0882 37.2516 23.3957 37.6142 23.6096C38.7088 24.2558 39.5074 25.319 39.8349 26.5657C40.1623 27.8124 39.9918 29.1409 39.3607 30.2594L37.1088 34.2378C36.4757 35.3551 35.4342 36.1703 34.2129 36.5046C32.9916 36.8388 31.6902 36.6648 30.5945 36.0206C30.2319 35.8076 29.821 35.6956 29.4027 35.6958C28.9844 35.6961 28.5735 35.8085 28.2112 36.0219C27.8489 36.2352 27.5479 36.542 27.3383 36.9116C27.1288 37.2811 27.018 37.7003 27.0172 38.1273C27.0172 40.8188 24.8832 43 22.2466 43H17.7511C16.4856 42.9992 15.2722 42.4855 14.3776 41.5718C13.483 40.6581 12.9805 39.4191 12.9805 38.1273C12.9797 37.7003 12.8689 37.2811 12.6594 36.9116C12.4498 36.542 12.1488 36.2352 11.7865 36.0219C11.4242 35.8085 11.0133 35.6961 10.595 35.6958C10.1768 35.6956 9.76577 35.8076 9.40324 36.0206C8.30751 36.6648 7.00616 36.8388 5.78484 36.5046C4.56351 36.1703 3.522 35.3551 2.88891 34.2378L0.636977 30.2594C0.00592035 29.1409 -0.164601 27.8124 0.162841 26.5657C0.490282 25.319 1.28893 24.2558 2.38349 23.6096C2.7455 23.3955 3.04603 23.0881 3.25494 22.7181C3.46386 22.3481 3.57383 21.9285 3.57383 21.5014C3.57383 21.0744 3.46386 20.6548 3.25494 20.2848C3.04603 19.9148 2.7455 19.6074 2.38349 19.3933C1.28893 18.747 0.490282 17.6839 0.162841 16.4371C-0.164601 15.1904 0.00592035 13.862 0.636977 12.7435L2.88611 8.76223C3.51919 7.64491 4.5607 6.82966 5.78203 6.49541C7.00336 6.16116 8.3047 6.33523 9.40043 6.9794C9.76296 7.19239 10.1739 7.30438 10.5922 7.30416C11.0105 7.30394 11.4214 7.19151 11.7837 6.97814C12.146 6.76477 12.447 6.45796 12.6566 6.08843C12.8661 5.71891 12.9769 5.29966 12.9777 4.87268ZM24.2093 21.4971C24.2093 22.6374 23.7656 23.731 22.9757 24.5373C22.1858 25.3436 21.1145 25.7966 19.9975 25.7966C18.8804 25.7966 17.8091 25.3436 17.0192 24.5373C16.2293 23.731 15.7856 22.6374 15.7856 21.4971C15.7856 20.3569 16.2293 19.2633 17.0192 18.457C17.8091 17.6507 18.8804 17.1977 19.9975 17.1977C21.1145 17.1977 22.1858 17.6507 22.9757 18.457C23.7656 19.2633 24.2093 20.3569 24.2093 21.4971ZM28.4212 21.4971C28.4212 23.7777 27.5337 25.9648 25.9539 27.5774C24.3742 29.19 22.2316 30.096 19.9975 30.096C17.7633 30.096 15.6207 29.19 14.041 27.5774C12.4612 25.9648 11.5737 23.7777 11.5737 21.4971C11.5737 19.2166 12.4612 17.0294 14.041 15.4168C15.6207 13.8042 17.7633 12.8983 19.9975 12.8983C22.2316 12.8983 24.3742 13.8042 25.9539 15.4168C27.5337 17.0294 28.4212 19.2166 28.4212 21.4971Z" fill="#1F2937" stroke="#E5E7EB" stroke-width="2" mask="url(#path-1-inside-1_4025_195)"/>
</svg>
