<svg width="57" height="66" viewBox="0 0 57 66" fill="none" xmlns="http://www.w3.org/2000/svg">
<path d="M31.9397 30.4863C32.7177 30.8086 33.4752 31.1631 34.2123 31.5498C34.9494 31.9365 35.666 32.377 36.3621 32.8711C35.9116 33.3867 35.5022 33.9238 35.1336 34.4824C34.7651 35.041 34.4273 35.6426 34.1202 36.2871C32.5436 35.2129 30.8648 34.3965 29.0835 33.8379C27.3023 33.2793 25.4698 33 23.5862 33C21.7845 33 20.0442 33.2471 18.3653 33.7412C16.6864 34.2354 15.1202 34.9229 13.6665 35.8037C12.2128 36.6846 10.8922 37.7588 9.70474 39.0264C8.51724 40.2939 7.49353 41.6904 6.63362 43.2158C5.77371 44.7412 5.1083 46.3848 4.63739 48.1465C4.16649 49.9082 3.93103 51.7344 3.93103 53.625H0C0 51.0469 0.358297 48.5654 1.07489 46.1807C1.79149 43.7959 2.82543 41.5938 4.17672 39.5742C5.52802 37.5547 7.125 35.7607 8.96767 34.1924C10.8103 32.624 12.8987 31.3887 15.2328 30.4863C12.9192 28.8965 11.1175 26.8984 9.82759 24.4922C8.53772 22.0859 7.88254 19.4219 7.86207 16.5C7.86207 14.2227 8.27155 12.085 9.09052 10.0869C9.90948 8.08887 11.0253 6.33789 12.438 4.83398C13.8508 3.33008 15.5194 2.14844 17.444 1.28906C19.3685 0.429688 21.4159 0 23.5862 0C25.7565 0 27.7936 0.429688 29.6977 1.28906C31.6018 2.14844 33.2705 3.31934 34.7037 4.80176C36.1369 6.28418 37.2629 8.03516 38.0819 10.0547C38.9009 12.0742 39.3103 14.2227 39.3103 16.5C39.3103 17.918 39.1466 19.3037 38.819 20.6572C38.4914 22.0107 38 23.2891 37.3448 24.4922C36.6897 25.6953 35.9219 26.8018 35.0415 27.8115C34.1611 28.8213 33.1272 29.7129 31.9397 30.4863ZM11.7931 16.5C11.7931 18.2188 12.1002 19.8193 12.7144 21.3018C13.3287 22.7842 14.1681 24.0947 15.2328 25.2334C16.2974 26.3721 17.5463 27.2637 18.9795 27.9082C20.4127 28.5527 21.9483 28.875 23.5862 28.875C25.2037 28.875 26.729 28.5527 28.1622 27.9082C29.5954 27.2637 30.8443 26.3828 31.9089 25.2656C32.9736 24.1484 33.8233 22.8379 34.458 21.334C35.0927 19.8301 35.3998 18.2188 35.3793 16.5C35.3793 14.8027 35.0722 13.2021 34.458 11.6982C33.8438 10.1943 33.0043 8.88379 31.9397 7.7666C30.875 6.64941 29.6158 5.75781 28.1622 5.0918C26.7085 4.42578 25.1832 4.10352 23.5862 4.125C21.9483 4.125 20.423 4.44727 19.0102 5.0918C17.5975 5.73633 16.3486 6.61719 15.2635 7.73438C14.1783 8.85156 13.3287 10.1729 12.7144 11.6982C12.1002 13.2236 11.7931 14.8242 11.7931 16.5ZM57 43.3125C57 44.4297 56.8362 45.5146 56.5086 46.5674C56.181 47.6201 55.6897 48.5977 55.0345 49.5V66L47.1724 61.875L39.3103 66V49.5C38.6756 48.5977 38.1945 47.6201 37.8669 46.5674C37.5393 45.5146 37.3653 44.4297 37.3448 43.3125C37.3448 41.8945 37.6008 40.5625 38.1126 39.3164C38.6245 38.0703 39.3206 36.9854 40.201 36.0615C41.0814 35.1377 42.1255 34.3965 43.3335 33.8379C44.5415 33.2793 45.8211 33 47.1724 33C48.5237 33 49.7931 33.2686 50.9806 33.8057C52.1681 34.3428 53.202 35.084 54.0824 36.0293C54.9628 36.9746 55.6692 38.0703 56.2015 39.3164C56.7338 40.5625 57 41.8945 57 43.3125ZM47.1724 37.125C46.3535 37.125 45.5857 37.2861 44.8691 37.6084C44.1525 37.9307 43.528 38.3711 42.9957 38.9297C42.4634 39.4883 42.0436 40.1436 41.7365 40.8955C41.4294 41.6475 41.2759 42.4531 41.2759 43.3125C41.2759 44.1719 41.4294 44.9775 41.7365 45.7295C42.0436 46.4814 42.4634 47.1367 42.9957 47.6953C43.528 48.2539 44.1525 48.6943 44.8691 49.0166C45.5857 49.3389 46.3535 49.5 47.1724 49.5C47.9914 49.5 48.7592 49.3389 49.4758 49.0166C50.1923 48.6943 50.8168 48.2539 51.3491 47.6953C51.8815 47.1367 52.3012 46.4814 52.6083 45.7295C52.9154 44.9775 53.069 44.1719 53.069 43.3125C53.069 42.4531 52.9154 41.6475 52.6083 40.8955C52.3012 40.1436 51.8815 39.4883 51.3491 38.9297C50.8168 38.3711 50.1923 37.9307 49.4758 37.6084C48.7592 37.2861 47.9914 37.125 47.1724 37.125ZM51.1035 59.3291V52.7549C49.875 53.335 48.5647 53.625 47.1724 53.625C45.7802 53.625 44.4698 53.335 43.2414 52.7549V59.3291C43.8966 58.9854 44.5517 58.6523 45.2069 58.3301C45.8621 58.0078 46.5172 57.6533 47.1724 57.2666C47.8276 57.6318 48.4828 57.9756 49.1379 58.2979C49.7931 58.6201 50.4483 58.9639 51.1035 59.3291Z" fill="#111827"/>
</svg>
