<svg width="72" height="72" viewBox="0 0 72 72" fill="none" xmlns="http://www.w3.org/2000/svg">
<path d="M71.994 35.9955V35.9775C71.994 25.325 67.3564 15.7584 59.992 9.17966L59.956 9.14966C59.865 9.05168 59.7634 8.96415 59.653 8.88868L59.647 8.88568C53.1059 3.14324 44.6949 -0.0160728 35.991 6.14932e-05C26.8958 6.14932e-05 18.5925 3.37791 12.263 8.95167L12.302 8.91867C12.2259 8.97682 12.1556 9.04212 12.092 9.11367C8.28705 12.4832 5.2414 16.6258 3.15678 21.2611C1.07216 25.8965 -0.00384983 30.9219 1.03495e-05 36.0045C1.03495e-05 46.654 4.63162 56.2206 11.99 62.8023L12.026 62.8323C12.1217 62.94 12.2283 63.0375 12.344 63.1233L12.35 63.1263C18.8889 68.861 27.2938 72.0157 35.991 71.9999C44.7289 72.0134 53.1697 68.8294 59.722 63.0483L59.683 63.0813C63.5541 59.7156 66.6571 55.5577 68.782 50.8889C70.907 46.22 72.0044 41.1492 72 36.0195V35.9985L71.994 35.9955ZM58.6091 59.4095C56.8252 57.968 54.9077 56.7003 52.8826 55.6236L52.6876 55.5276C54.5264 50.2269 55.6334 44.1161 55.7383 37.7594V37.7114H68.5203C68.0904 45.9356 64.5507 53.6888 58.6181 59.4005L58.6091 59.4095ZM37.7129 54.8947C41.5615 55.1017 45.1582 55.9476 48.476 57.3246L48.26 57.2466C45.6022 63.3063 41.8615 67.4701 37.7129 68.3851V54.8947ZM37.7129 51.4628V37.7114H52.3156C52.1994 43.4059 51.2121 49.0491 49.3879 54.4447L49.5049 54.0517C45.7812 52.5188 41.8197 51.6438 37.7968 51.4658L37.7159 51.4628H37.7129ZM37.7129 34.2796V20.5282C41.8441 20.3402 45.9113 19.4358 49.7328 17.8553L49.4959 17.9423C51.1607 22.7991 52.1836 28.3968 52.3156 34.2166V34.2796H37.7129ZM37.7129 17.0963V3.6119C41.8615 4.52687 45.6022 8.67269 48.26 14.7504C45.1582 16.0404 41.5615 16.8833 37.7998 17.0933L37.7129 17.0963ZM46.2741 5.09684C49.8099 6.27364 53.1161 8.05164 56.0473 10.3526L55.9783 10.2986C54.6494 11.3426 53.1586 12.3265 51.5867 13.1815L51.4187 13.2655C50.1518 10.2661 48.4051 7.49292 46.2471 5.05484L46.2741 5.08784V5.09684ZM34.2751 3.6209V17.0963C30.5749 16.9078 26.9344 16.0859 23.512 14.6664L23.728 14.7444C26.3978 8.68468 30.1325 4.52387 34.2811 3.6089L34.2751 3.6209ZM20.5723 13.2565C18.9466 12.3809 17.3973 11.3704 15.9407 10.2356L16.0127 10.2896C18.8584 8.05606 22.0613 6.31967 25.4859 5.15384L25.7139 5.08484C23.6145 7.45843 21.9044 10.1497 20.6473 13.0585L20.5723 13.2565ZM34.2811 20.5252V34.2766H19.6784C19.8104 28.3938 20.8333 22.7961 22.6151 17.5463L22.4981 17.9393C26.2219 19.4648 30.1803 20.3385 34.2001 20.5222L34.2811 20.5252ZM34.2811 37.7084V51.4598C30.1499 51.6478 26.0827 52.5522 22.2611 54.1327L22.4981 54.0457C20.8333 49.1919 19.8104 43.5912 19.6784 37.7714V37.7084H34.2811ZM34.2811 54.8917V68.3761C30.1325 67.4611 26.3918 63.3153 23.734 57.2376C26.8358 55.9476 30.4325 55.1077 34.1941 54.8977L34.2811 54.8917ZM25.7319 66.8912C22.1993 65.7126 18.894 63.9391 15.9587 61.6474L16.0307 61.7014C17.3596 60.6574 18.8504 59.6735 20.4223 58.8185L20.5903 58.7345C21.8477 61.7345 23.5943 64.5051 25.7589 66.9332L25.7319 66.9032V66.8912ZM51.4217 58.7315C53.1616 59.6765 54.6524 60.6574 56.0533 61.7524L55.9813 61.6984C53.1356 63.9319 49.9327 65.6683 46.5081 66.8342L46.2801 66.9032C48.3793 64.5305 50.0893 61.8403 51.3467 58.9325L51.4217 58.7375V58.7315ZM68.5203 34.2796H55.7383C55.6445 28.0729 54.5735 21.9197 52.5646 16.0464L52.6876 16.4603C54.8065 15.3443 56.8126 14.0262 58.6781 12.5245L58.6061 12.5785C64.5286 18.2671 68.0701 25.9925 68.5143 34.1926L68.5203 34.2796ZM13.3849 12.5815C15.1127 13.9855 17.0536 15.2724 19.1114 16.3674L19.3064 16.4633C17.4675 21.7641 16.3606 27.8749 16.2556 34.2316V34.2796H3.47072C3.90057 26.0554 7.44033 18.3022 13.3729 12.5905L13.3849 12.5815ZM3.47372 37.7114H16.2556C16.3495 43.9181 17.4205 50.0713 19.4294 55.9446L19.3064 55.5306C17.0536 56.7276 15.1157 58.0145 13.3159 59.4665L13.3879 59.4125C7.46536 53.7239 3.92393 45.9985 3.47972 37.7984L3.47672 37.7144L3.47372 37.7114Z" fill="#F3F4F6"/>
</svg>
